<?xml version="1.0" encoding="UTF-8"?><svg id="a" xmlns="http://www.w3.org/2000/svg" viewBox="0 0 38.9628 381.7004"><defs><style>.b{fill:#fff;}</style></defs><path class="b" d="M.1012,238.9691v-98.1321c.5998-.052,1.086-.1305,1.5722-.131,7.9844-.0075,15.969-.0376,23.9532.0073,4.8215.0271,9.2104,1.3528,11.4884,5.9517,1.1247,2.2705,1.707,5.0423,1.7233,7.5925.1333,20.887.0766,41.7751.0681,62.6629-.0002.4829-.1111.9657-.1814,1.5385h-12.9316c0-.895,0-1.7185,0-2.542,0-18.464,0-36.928,0-55.3919,0-.5703.0128-1.141-.0034-1.7109-.1345-4.7355-1.4932-6.058-6.2242-6.0637-2.0649-.0025-4.1297-.0004-6.3645-.0004v73.9929h7.8158v12.2262H.1012Z"/><path class="b" d="M35.6225,98.5086H3.2774v-12.2292h19.0382V12.6472H3.2756V.3647h32.3469v98.1439Z"/><path class="b" d="M19.9773,279.3206v9.9929c-4.3493,1.1184-5.6658,2.629-5.9786,7.1728-.4555,6.615.5669,12.965,4.1709,18.6517,4.1535,6.5538,8.5102,12.9785,12.6955,19.5126,5.5475,8.6605,8.5677,18.0286,6.9022,28.3891-.544,3.3838-1.5679,6.8487-3.143,9.8756-3.3543,6.4459-9.2338,8.6381-16.3834,8.4038v-10.2051c4.2424-.6807,5.927-2.4444,6.3581-6.7244.7981-7.925-.1612-15.467-4.6679-22.3138-4.3048-6.54-8.5675-13.1109-12.6933-19.7646-4.9414-7.969-7.3718-16.5721-6.2037-26.0511,1.2377-10.0438,7.9259-16.6107,17.4482-16.9375.4204-.0144.8418-.0019,1.4952-.0019Z"/></svg>