<?xml version="1.0" encoding="UTF-8"?><svg id="a" xmlns="http://www.w3.org/2000/svg" viewBox="0 0 369.6609 98.2799"><defs><style>.b{fill:#fff;}</style></defs><path class="b" d="M164.4903,98.2799V.1478c.5998-.052,1.086-.1305,1.5722-.131,7.9844-.0075,15.969-.0376,23.9532.0073,4.8215.0271,9.2104,1.3528,11.4884,5.9517,1.1247,2.2705,1.707,5.0423,1.7233,7.5925.1333,20.887.0766,41.7751.0681,62.6629-.0002.4829-.1111.9657-.1814,1.5385h-12.9316c0-.895,0-1.7185,0-2.542,0-18.464,0-36.928,0-55.3919,0-.5703.0128-1.141-.0034-1.7109-.1345-4.7355-1.4932-6.058-6.2242-6.0637-2.0649-.0025-4.1297-.0004-6.3645-.0004v73.9929h7.8158v12.2262h-20.9158Z"/><path class="b" d="M32.3451,98.2119H0v-12.2292h19.0382V12.3505H-.0018V.068h32.3469v98.1439Z"/><path class="b" d="M352.1074.0729v9.6132c-4.184,1.0759-5.4505,2.5291-5.7515,6.9003-.4382,6.3637.5453,12.4724,4.0124,17.943,3.9957,6.3048,8.1868,12.4854,12.2131,18.7712,5.3367,8.3315,8.2422,17.3436,6.6399,27.3104-.5233,3.2552-1.5084,6.5885-3.0236,9.5003-3.2268,6.201-8.8829,8.3099-15.7609,8.0845v-9.8174c4.0812-.6548,5.7018-2.3515,6.1165-6.4689.7678-7.6239-.155-14.8793-4.4905-21.4659-4.1412-6.2915-8.242-12.6128-12.2111-19.0136-4.7537-7.6662-7.0917-15.9425-5.968-25.0613,1.1907-9.6622,7.6247-15.9796,16.7852-16.294.4045-.0139.8098-.0018,1.4384-.0018Z"/></svg>